<svg width="591" height="243" viewBox="0 0 591 243" fill="none" xmlns="http://www.w3.org/2000/svg">
<g clip-path="url(#clip0_176_39)">
<path d="M32.2773 221.3C19.6834 229.384 17.0695 242.641 17.0695 242.641C17.0695 242.641 34.8741 242.793 47.468 234.71C60.0618 226.627 62.6758 213.369 62.6758 213.369C62.6758 213.369 44.8711 213.217 32.2773 221.3Z" fill="#F2F2F2"/>
<path d="M38.0968 224.516C32.7323 236.302 17.3093 243 17.3093 243C17.3093 243 10.5839 230.59 15.9484 218.804C21.313 207.019 36.7359 200.321 36.7359 200.321C36.7359 200.321 43.4613 212.731 38.0968 224.516Z" fill="#F2F2F2"/>
<path d="M169.551 50.1493C166.702 47.3701 162.675 44.7985 162.42 41.3689C162.186 38.2233 165.302 35.1002 163.988 32.0909C162.977 29.777 159.644 28.3809 156.386 27.6415C150.15 26.2463 143.476 26.4397 137.401 28.1917L137.73 28.0167C134.022 27.0224 129.688 28.0488 126.771 29.9499C123.853 31.8509 122.119 34.486 120.774 37.1266C119.428 39.7672 118.386 42.5045 116.517 44.9801C114.647 47.4557 111.785 49.7071 108.008 50.5626C109.273 52.4609 113.225 53.1121 115.543 51.8041C116.135 51.4421 116.667 51.0279 117.128 50.5704C118.674 49.1554 120.22 47.7404 121.766 46.3255C123.357 48.455 120.98 51.3942 122.935 53.3657C123.944 54.3824 125.785 54.7685 127.495 55.0454C140.862 57.1922 154.728 56.8051 167.847 53.9188C168.901 53.6849 170.064 53.3628 170.502 52.6445C171.007 51.8152 170.301 50.8802 169.551 50.1493Z" fill="#2F2E41"/>
<path d="M207.452 60.9955C207.369 61.2717 207.314 61.5524 207.289 61.8351L178.074 74.5219L170.972 71.4447L163.402 78.9047L175.27 85.2719C176.229 85.7863 177.383 86.0527 178.56 86.0311C179.737 86.0095 180.873 85.7011 181.798 85.1522L211.924 67.2622C213.284 67.6411 214.764 67.6993 216.169 67.4293C217.574 67.1593 218.836 66.5737 219.788 65.7506C220.739 64.9274 221.336 63.9057 221.497 62.8212C221.659 61.7367 221.378 60.6409 220.692 59.6796C220.006 58.7182 218.947 57.9369 217.657 57.4395C216.366 56.9421 214.905 56.7522 213.468 56.895C212.031 57.0378 210.685 57.5067 209.611 58.2392C208.536 58.9716 207.783 59.933 207.452 60.9955Z" fill="#FFB7B7"/>
<path d="M177.097 75.1227L167.654 84.3345C167.386 84.5966 167.045 84.812 166.656 84.9661C166.267 85.1202 165.838 85.2094 165.399 85.2275C164.96 85.2456 164.52 85.1922 164.111 85.071C163.702 84.9499 163.332 84.7637 163.027 84.5253L152.338 76.1699C150.561 75.1282 149.407 73.5987 149.127 71.9169C148.848 70.2351 149.467 68.5387 150.847 67.1998C152.228 65.861 154.258 64.9893 156.492 64.776C158.725 64.5627 160.98 65.0253 162.761 66.0622L176.168 71.7051C176.552 71.8668 176.885 72.0888 177.145 72.356C177.404 72.6233 177.584 72.9295 177.672 73.2539C177.76 73.5782 177.755 73.913 177.655 74.2355C177.556 74.558 177.366 74.8606 177.097 75.1227Z" fill="#F9A826"/>
<path d="M164.102 235.626L172.44 235.626L176.406 211.418L164.1 211.418L164.102 235.626Z" fill="#FFB7B7"/>
<path d="M161.975 233.577L178.395 233.577H178.396C181.171 233.577 183.833 234.407 185.795 235.884C187.758 237.361 188.86 239.365 188.86 241.454V241.709L161.975 241.71L161.975 233.577Z" fill="#2F2E41"/>
<path d="M106.973 235.626L115.311 235.626L119.277 211.418L106.971 211.418L106.973 235.626Z" fill="#FFB7B7"/>
<path d="M104.846 233.577L121.266 233.577H121.267C124.042 233.577 126.704 234.407 128.666 235.884C130.629 237.361 131.731 239.365 131.731 241.454V241.709L104.846 241.71L104.846 233.577Z" fill="#2F2E41"/>
<path d="M159.094 46.727C159.963 40.7722 154.254 35.415 146.343 34.7614C138.432 34.1077 131.315 38.4051 130.446 44.3598C129.578 50.3146 135.287 55.6717 143.198 56.3254C151.109 56.9791 158.226 52.6817 159.094 46.727Z" fill="#FFB7B7"/>
<path d="M153.202 61.8041L161.691 64.9697C161.691 64.9697 171.176 77.3775 165.735 89.152C163.094 94.8686 170.533 113.092 170.533 113.092C170.533 113.092 182.058 195.634 182.094 221.11C167.776 222.767 154.174 224.815 153.493 219.695C152.813 214.576 145.369 154.046 145.369 154.046C145.369 154.046 135.131 221.231 126.969 222.255C118.808 223.279 102.485 221.743 102.485 221.743C102.485 221.743 115.444 123.33 124.285 117.187L125.645 112.068L125.609 66.1149L135.795 62.4558L153.202 61.8041Z" fill="#2F2E41"/>
<path d="M122.833 131.566C123.772 131.183 124.589 130.65 125.225 130.004C125.861 129.358 126.302 128.615 126.515 127.827C126.728 127.04 126.71 126.226 126.46 125.444C126.211 124.663 125.737 123.932 125.071 123.303L134.944 73.7669L122.046 73.3008L114.349 122.631C113.02 123.543 112.181 124.79 111.991 126.136C111.801 127.482 112.274 128.834 113.319 129.935C114.365 131.036 115.911 131.81 117.665 132.111C119.418 132.411 121.257 132.217 122.833 131.566Z" fill="#FFB7B7"/>
<path d="M134.664 86.1787L119.238 85.4456C118.799 85.4247 118.371 85.3329 117.983 85.1764C117.596 85.0198 117.258 84.8023 116.992 84.5385C116.726 84.2747 116.539 83.9709 116.443 83.6478C116.348 83.3247 116.346 82.9898 116.437 82.6661L119.652 71.3214C119.806 69.6314 120.844 68.0564 122.539 66.9418C124.233 65.8272 126.446 65.2639 128.692 65.3756C130.937 65.4873 133.032 66.2648 134.517 67.5376C136.003 68.8104 136.756 70.4745 136.614 72.1651L137.907 83.6864C137.944 84.0162 137.886 84.3482 137.737 84.6597C137.588 84.9712 137.351 85.2549 137.044 85.4914C136.736 85.7279 136.364 85.9117 135.953 86.0303C135.543 86.1489 135.103 86.1995 134.664 86.1787Z" fill="#F9A826"/>
<path d="M561.011 39.2061H219.874C217.383 39.2061 214.995 39.9507 213.234 41.2762C211.473 42.6016 210.484 44.3993 210.484 46.2738V189.349C210.484 191.223 211.473 193.021 213.234 194.346C214.995 195.672 217.383 196.416 219.874 196.416H561.011C563.501 196.416 565.89 195.672 567.651 194.346C569.411 193.021 570.401 191.223 570.401 189.349V46.2738C570.401 44.3993 569.411 42.6016 567.651 41.2762C565.89 39.9507 563.501 39.2061 561.011 39.2061Z" fill="#3F3D56"/>
<path d="M557.812 51.6967H223.073V193.832H557.812V51.6967Z" fill="white"/>
<path d="M390.156 47.8203C392.052 47.8203 393.589 46.6633 393.589 45.236C393.589 43.8088 392.052 42.6517 390.156 42.6517C388.26 42.6517 386.723 43.8088 386.723 45.236C386.723 46.6633 388.26 47.8203 390.156 47.8203Z" fill="white"/>
<path d="M462.082 193.832H223.073V51.6967L462.082 193.832Z" fill="#F2F2F2"/>
<path d="M579.799 191.248H547.131V189.476C547.131 189.383 547.082 189.294 546.994 189.228C546.907 189.162 546.788 189.125 546.664 189.125H535.464C535.402 189.125 535.342 189.134 535.285 189.151C535.228 189.169 535.177 189.195 535.134 189.228C535.09 189.26 535.056 189.299 535.032 189.342C535.009 189.384 534.997 189.43 534.997 189.476V191.248H527.997V189.476C527.997 189.43 527.985 189.384 527.961 189.342C527.938 189.299 527.903 189.26 527.86 189.228C527.817 189.195 527.765 189.169 527.709 189.151C527.652 189.134 527.591 189.125 527.53 189.125H516.329C516.268 189.125 516.207 189.134 516.151 189.151C516.094 189.169 516.043 189.195 515.999 189.228C515.956 189.26 515.922 189.299 515.898 189.342C515.875 189.384 515.863 189.43 515.863 189.476V191.248H508.862V189.476C508.862 189.43 508.85 189.384 508.827 189.342C508.803 189.299 508.769 189.26 508.726 189.228C508.682 189.195 508.631 189.169 508.574 189.151C508.518 189.134 508.457 189.125 508.396 189.125H497.195C497.134 189.125 497.073 189.134 497.016 189.151C496.96 189.169 496.908 189.195 496.865 189.228C496.822 189.26 496.787 189.299 496.764 189.342C496.74 189.384 496.728 189.43 496.728 189.476V191.248H489.728V189.476C489.728 189.43 489.716 189.384 489.692 189.342C489.669 189.299 489.635 189.26 489.591 189.228C489.548 189.195 489.496 189.169 489.44 189.151C489.383 189.134 489.323 189.125 489.261 189.125H478.061C477.999 189.125 477.939 189.134 477.882 189.151C477.825 189.169 477.774 189.195 477.731 189.228C477.687 189.26 477.653 189.299 477.629 189.342C477.606 189.384 477.594 189.43 477.594 189.476V191.248H470.594V189.476C470.594 189.43 470.582 189.384 470.558 189.342C470.535 189.299 470.5 189.26 470.457 189.228C470.414 189.195 470.362 189.169 470.306 189.151C470.249 189.134 470.188 189.125 470.127 189.125H458.926C458.865 189.125 458.804 189.134 458.748 189.151C458.691 189.169 458.64 189.195 458.596 189.228C458.553 189.26 458.519 189.299 458.495 189.342C458.472 189.384 458.46 189.43 458.46 189.476V191.248H451.459V189.476C451.459 189.43 451.447 189.384 451.424 189.342C451.4 189.299 451.366 189.26 451.323 189.228C451.279 189.195 451.228 189.169 451.171 189.151C451.114 189.134 451.054 189.125 450.993 189.125H439.792C439.731 189.125 439.67 189.134 439.613 189.151C439.557 189.169 439.505 189.195 439.462 189.228C439.419 189.26 439.384 189.299 439.361 189.342C439.337 189.384 439.325 189.43 439.325 189.476V191.248H432.325V189.476C432.325 189.43 432.313 189.384 432.289 189.342C432.266 189.299 432.232 189.26 432.188 189.228C432.145 189.195 432.093 189.169 432.037 189.151C431.98 189.134 431.919 189.125 431.858 189.125H344.12C344.059 189.125 343.998 189.134 343.942 189.151C343.885 189.169 343.833 189.195 343.79 189.228C343.747 189.26 343.712 189.299 343.689 189.342C343.666 189.384 343.653 189.43 343.653 189.476V191.248H336.653V189.476C336.653 189.43 336.641 189.384 336.618 189.342C336.594 189.299 336.56 189.26 336.516 189.228C336.473 189.195 336.422 189.169 336.365 189.151C336.308 189.134 336.248 189.125 336.186 189.125H324.986C324.925 189.125 324.864 189.134 324.807 189.151C324.751 189.169 324.699 189.195 324.656 189.228C324.612 189.26 324.578 189.299 324.555 189.342C324.531 189.384 324.519 189.43 324.519 189.476V191.248H317.519V189.476C317.519 189.43 317.507 189.384 317.483 189.342C317.46 189.299 317.425 189.26 317.382 189.228C317.339 189.195 317.287 189.169 317.231 189.152C317.174 189.134 317.113 189.125 317.052 189.125H305.851C305.79 189.125 305.729 189.134 305.673 189.151C305.616 189.169 305.565 189.195 305.521 189.228C305.478 189.26 305.444 189.299 305.42 189.342C305.397 189.384 305.385 189.43 305.385 189.476V191.248H298.384V189.476C298.384 189.43 298.372 189.384 298.349 189.342C298.325 189.299 298.291 189.26 298.248 189.228C298.204 189.195 298.153 189.169 298.096 189.151C298.04 189.134 297.979 189.125 297.918 189.125H286.717C286.656 189.125 286.595 189.134 286.538 189.151C286.482 189.169 286.43 189.195 286.387 189.228C286.344 189.26 286.309 189.299 286.286 189.342C286.262 189.384 286.25 189.43 286.25 189.476V191.248H279.25V189.476C279.25 189.43 279.238 189.384 279.215 189.342C279.191 189.299 279.157 189.26 279.113 189.228C279.07 189.195 279.019 189.169 278.962 189.151C278.905 189.134 278.845 189.125 278.783 189.125H267.583C267.521 189.125 267.461 189.134 267.404 189.151C267.347 189.169 267.296 189.195 267.253 189.228C267.209 189.26 267.175 189.299 267.152 189.342C267.128 189.384 267.116 189.43 267.116 189.476V191.248H260.116V189.476C260.116 189.43 260.104 189.384 260.08 189.342C260.057 189.299 260.022 189.26 259.979 189.228C259.936 189.195 259.884 189.169 259.828 189.151C259.771 189.134 259.71 189.125 259.649 189.125H248.448C248.325 189.125 248.206 189.162 248.118 189.228C248.031 189.293 247.982 189.383 247.982 189.476V191.248H240.981V189.476C240.981 189.43 240.969 189.384 240.946 189.342C240.922 189.299 240.888 189.26 240.845 189.228C240.801 189.195 240.75 189.169 240.693 189.152C240.637 189.134 240.576 189.125 240.515 189.125H229.314C229.19 189.125 229.072 189.162 228.984 189.228C228.896 189.294 228.847 189.383 228.847 189.476V191.248H207.379C205.909 191.248 204.452 191.466 203.093 191.89C201.734 192.313 200.5 192.934 199.459 193.717C198.419 194.5 197.594 195.429 197.031 196.452C196.469 197.475 196.179 198.572 196.179 199.679V203.491C196.179 205.727 197.359 207.872 199.459 209.453C201.56 211.034 204.409 211.922 207.379 211.922H579.799C582.77 211.922 585.619 211.034 587.719 209.453C589.82 207.872 591 205.727 591 203.491V199.679C591 198.572 590.71 197.475 590.147 196.452C589.585 195.429 588.759 194.5 587.719 193.717C586.679 192.934 585.445 192.313 584.086 191.89C582.727 191.466 581.27 191.248 579.799 191.248Z" fill="#3F3D56"/>
<path d="M396.881 175.195C396.769 175.395 396.644 175.59 396.504 175.78C395.774 176.794 394.742 177.668 393.49 178.333C392.006 179.119 390.264 179.583 388.454 179.675C386.644 179.766 384.836 179.482 383.226 178.853C381.616 178.224 380.266 177.274 379.324 176.107C378.382 174.94 377.884 173.601 377.884 172.236V171.032H379.241C384.511 173.597 390.609 175.036 396.881 175.195Z" fill="#3F3D56"/>
<path d="M416.24 171.385V172.236C416.241 173.892 415.508 175.502 414.158 176.81C412.808 178.119 410.917 179.051 408.784 179.461C406.651 179.87 404.398 179.732 402.38 179.07C400.363 178.408 398.696 177.259 397.643 175.804C397.498 175.609 397.367 175.409 397.25 175.204C397.54 175.21 397.825 175.213 398.115 175.213C404.51 175.218 410.782 173.893 416.24 171.385Z" fill="#3F3D56"/>
<path d="M429.584 81.3929C429.287 81.36 428.985 81.3391 428.684 81.3242C432.11 87.2671 432.347 93.9775 429.346 100.049C429.648 100.022 429.945 99.9866 430.243 99.9448C433.148 99.5211 435.759 98.3352 437.611 96.5981C439.464 94.861 440.437 92.6854 440.358 90.4588C440.279 88.2321 439.153 86.0988 437.18 84.4386C435.207 82.7785 432.515 81.6992 429.584 81.3929Z" fill="#3F3D56"/>
<path d="M367.546 81.3242C367.245 81.3391 366.943 81.36 366.646 81.3929C363.715 81.6992 361.023 82.7785 359.05 84.4387C357.077 86.0989 355.951 88.2321 355.872 90.4588C355.793 92.6854 356.766 94.8609 358.619 96.598C360.471 98.3351 363.082 99.5211 365.987 99.9448C366.285 99.9866 366.582 100.022 366.883 100.049C363.883 93.9775 364.12 87.2672 367.546 81.3242Z" fill="#3F3D56"/>
<path d="M429.584 81.3929C426.316 75.517 420.263 70.7653 412.601 68.0608C404.939 65.3564 396.215 64.8923 388.124 66.7588C380.033 68.6253 373.152 72.6891 368.819 78.1606C364.486 83.6322 363.009 90.1209 364.676 96.3661C366.343 102.611 371.034 108.167 377.839 111.954C384.644 115.741 393.075 117.489 401.497 116.859C409.918 116.228 417.726 113.264 423.406 108.541C429.086 103.819 432.231 97.6764 432.23 91.3064C432.229 87.9026 431.329 84.533 429.584 81.3929ZM429.346 100.049C426.445 105.921 420.728 110.762 413.323 113.62C405.917 116.478 397.358 117.146 389.331 115.493C381.303 113.839 374.389 109.984 369.949 104.685C365.508 99.3871 363.863 93.0297 365.337 86.8642C366.812 80.6988 371.298 75.172 377.914 71.3717C384.531 67.5714 392.797 65.7727 401.086 66.3298C409.376 66.8869 417.088 69.7593 422.705 74.3818C428.322 79.0042 431.437 85.0419 431.437 91.3064C431.436 94.291 430.728 97.2516 429.346 100.049Z" fill="#3F3D56"/>
<path d="M415.569 85.4838H380.661C378.82 85.4838 377.054 86.0343 375.752 87.0143C374.45 87.9942 373.719 89.3234 373.719 90.7092C373.719 92.0951 374.45 93.4242 375.752 94.4042C377.054 95.3842 378.82 95.9347 380.661 95.9347H415.569C417.411 95.9347 419.176 95.3842 420.478 94.4042C421.78 93.4242 422.511 92.0951 422.511 90.7092C422.511 89.3234 421.78 87.9942 420.478 87.0143C419.176 86.0343 417.411 85.4838 415.569 85.4838Z" fill="#F9A826"/>
<path d="M429.346 131.59C429.219 131.413 429.088 131.24 428.954 131.07C428.95 131.064 428.946 131.061 428.942 131.055C425.82 127.033 421.363 123.691 416.008 121.358C410.653 119.024 404.584 117.778 398.396 117.743C392.208 117.708 386.114 118.885 380.713 121.157C375.312 123.43 370.788 126.721 367.587 130.707C364.385 134.693 362.616 139.237 362.452 143.893C362.288 148.55 363.735 153.158 366.651 157.266C369.568 161.374 373.853 164.841 379.087 167.326C384.321 169.811 390.323 171.229 396.504 171.441C396.881 171.456 397.262 171.464 397.643 171.464C397.802 171.47 397.956 171.47 398.115 171.47C404.492 171.477 410.754 170.189 416.24 167.741C422.198 165.087 427.011 161.193 430.1 156.529C430.104 156.523 430.108 156.52 430.112 156.514C430.231 156.334 430.346 156.152 430.461 155.967C432.847 152.126 433.99 147.915 433.796 143.678C433.602 139.44 432.077 135.298 429.346 131.59ZM429.688 155.803C429.572 155.988 429.453 156.17 429.331 156.349C426.38 160.765 421.845 164.47 416.24 167.045C410.782 169.554 404.51 170.879 398.115 170.873C397.825 170.873 397.54 170.87 397.25 170.864C397.127 170.864 397.004 170.861 396.881 170.855C390.824 170.696 384.927 169.352 379.769 166.957C374.612 164.561 370.372 161.196 367.466 157.193C364.561 153.189 363.09 148.685 363.199 144.124C363.307 139.563 364.992 135.102 368.086 131.179C371.181 127.257 375.579 124.009 380.847 121.754C386.116 119.499 392.073 118.316 398.134 118.32C404.194 118.324 410.149 119.516 415.411 121.779C420.674 124.041 425.064 127.296 428.148 131.222C428.152 131.228 428.156 131.231 428.16 131.237C428.299 131.408 428.434 131.581 428.561 131.754C431.283 135.404 432.806 139.492 433.002 143.676C433.198 147.859 432.062 152.017 429.688 155.803Z" fill="#3F3D56"/>
<path d="M425.554 136.723C424.859 136.35 424.027 136.149 423.174 136.147H407.572C406.485 136.147 405.443 136.472 404.674 137.05C403.906 137.629 403.474 138.413 403.474 139.231C403.474 140.05 403.906 140.834 404.674 141.413C405.443 141.991 406.485 142.316 407.572 142.316H423.174C423.452 142.317 423.73 142.296 424.003 142.253C424.274 142.209 424.54 142.146 424.796 142.065C425.463 141.849 426.042 141.503 426.473 141.063C426.904 140.623 427.171 140.104 427.249 139.561C427.326 139.017 427.209 138.468 426.912 137.969C426.614 137.471 426.145 137.041 425.554 136.723Z" fill="#3F3D56"/>
<path d="M408.611 140.797C409.76 140.797 410.691 140.096 410.691 139.231C410.691 138.366 409.76 137.665 408.611 137.665C407.462 137.665 406.53 138.366 406.53 139.231C406.53 140.096 407.462 140.797 408.611 140.797Z" fill="#F1F1F1"/>
<path d="M415.372 140.797C416.521 140.797 417.453 140.096 417.453 139.231C417.453 138.366 416.521 137.665 415.372 137.665C414.223 137.665 413.292 138.366 413.292 139.231C413.292 140.096 414.223 140.797 415.372 140.797Z" fill="#F1F1F1"/>
<path d="M422.133 140.797C423.282 140.797 424.214 140.096 424.214 139.231C424.214 138.366 423.282 137.665 422.133 137.665C420.985 137.665 420.053 138.366 420.053 139.231C420.053 140.096 420.985 140.797 422.133 140.797Z" fill="#F9A826"/>
<path d="M500.489 87.6192C495.079 90.0616 485.44 93.1219 475.589 89.9768L469.222 87.9438L481.982 77.1771C471.8 68.7264 466.167 57.7228 466.182 46.3142C466.198 34.9056 471.861 23.9107 482.066 15.4757C492.271 7.0407 506.286 1.77097 521.375 0.695114C536.463 -0.380742 551.543 2.81449 563.671 9.65715C575.799 16.4998 584.104 26.4987 586.965 37.7023C589.826 48.9058 587.038 60.5098 579.145 70.2493C571.251 79.9888 558.82 87.1647 544.276 90.3764C529.733 93.5882 514.121 92.6051 500.489 87.6192Z" fill="white"/>
<path d="M500.522 88.1995C495.323 90.497 485.42 93.6721 475.324 90.448L468.083 88.136L481.069 77.1784C472.989 70.3371 467.779 61.849 466.095 52.7832C464.411 43.7174 466.329 34.4793 471.607 26.2322C476.884 17.9852 485.286 11.098 495.753 6.43816C506.221 1.77828 518.286 -0.445955 530.43 0.0455667C542.573 0.537088 554.252 3.72239 563.995 9.20032C573.739 14.6782 581.111 22.2038 585.183 30.8293C589.255 39.4548 589.846 48.7945 586.88 57.6721C583.915 66.5497 577.525 74.5683 568.517 80.718C559.471 86.9315 548.16 90.9645 536.042 92.2979C523.924 93.6312 511.553 92.2039 500.522 88.1995ZM571.757 15.889C566.441 11.4751 560.022 7.89264 552.867 5.34624C545.712 2.79983 537.96 1.33938 530.055 1.04828C522.15 0.757184 514.246 1.64115 506.795 3.64969C499.344 5.65823 492.491 8.752 486.629 12.7543C480.766 16.7566 476.008 21.589 472.627 26.9756C469.246 32.3621 467.308 38.1973 466.923 44.1478C466.538 50.0983 467.715 56.0475 470.385 61.6558C473.055 67.264 477.167 72.4213 482.486 76.8332L482.896 77.1744L470.361 87.7516L475.855 89.5056C485.606 92.6192 495.255 89.3849 500.139 87.1802L500.455 87.0374L500.786 87.1587C513.376 91.7633 527.703 92.9253 541.307 90.445C554.911 87.9647 566.943 81.9969 575.339 73.5662C583.734 65.1356 587.968 54.7679 587.315 44.2432C586.661 33.7186 581.16 23.6934 571.757 15.889Z" fill="#F9A826"/>
<path d="M500.522 88.1995C495.323 90.497 485.42 93.6721 475.324 90.448L468.083 88.136L481.069 77.1784C472.989 70.3371 467.779 61.849 466.095 52.7832C464.411 43.7174 466.329 34.4793 471.607 26.2322C476.884 17.9852 485.286 11.098 495.753 6.43816C506.221 1.77828 518.286 -0.445955 530.43 0.0455667C542.573 0.537088 554.252 3.72239 563.995 9.20032C573.739 14.6782 581.111 22.2038 585.183 30.8293C589.255 39.4548 589.846 48.7945 586.88 57.6721C583.915 66.5497 577.525 74.5683 568.517 80.718C559.471 86.9315 548.16 90.9645 536.042 92.2979C523.924 93.6312 511.553 92.2039 500.522 88.1995ZM571.757 15.889C566.441 11.4751 560.022 7.89264 552.867 5.34624C545.712 2.79983 537.96 1.33938 530.055 1.04828C522.15 0.757184 514.246 1.64115 506.795 3.64969C499.344 5.65823 492.491 8.752 486.629 12.7543C480.766 16.7566 476.008 21.589 472.627 26.9756C469.246 32.3621 467.308 38.1973 466.923 44.1478C466.538 50.0983 467.715 56.0475 470.385 61.6558C473.055 67.264 477.167 72.4213 482.486 76.8332L482.896 77.1744L470.361 87.7516L475.855 89.5056C485.606 92.6192 495.255 89.3849 500.139 87.1802L500.455 87.0374L500.786 87.1587C513.376 91.7633 527.703 92.9253 541.307 90.445C554.911 87.9647 566.943 81.9969 575.339 73.5662C583.734 65.1356 587.968 54.7679 587.315 44.2432C586.661 33.7186 581.16 23.6934 571.757 15.889Z" fill="#F9A826"/>
<path opacity="0.1" d="M578.567 46.0753C578.566 35.526 573.318 25.3593 563.856 17.5773C554.394 9.79521 541.404 4.96186 527.444 4.02902C529.078 3.92131 530.73 3.86304 532.401 3.86304C547.268 3.86979 561.523 8.32011 572.033 16.2357C582.542 24.1513 588.446 34.8843 588.446 46.0752C588.446 57.2662 582.542 67.9992 572.033 75.9148C561.523 83.8304 547.268 88.2807 532.401 88.2875C530.732 88.2875 529.083 88.2284 527.452 88.1209C541.41 87.1867 554.398 82.3528 563.858 74.5711C573.319 66.7893 578.566 56.6235 578.567 46.0753Z" fill="black"/>
<path d="M535.035 37.6576H494.963V40.4587H535.035V37.6576Z" fill="#F9A826"/>
<path d="M564.805 47.3474H494.963V50.1485H564.805V47.3474Z" fill="#F9A826"/>
<path d="M564.736 57.0371H494.963V59.8382H564.736V57.0371Z" fill="#F9A826"/>
<path d="M259.801 242.244H0.680107C0.499732 242.244 0.326743 242.19 0.199198 242.094C0.0716535 241.998 0 241.868 0 241.732C0 241.597 0.0716535 241.466 0.199198 241.37C0.326743 241.274 0.499732 241.22 0.680107 241.22H259.801C259.981 241.22 260.154 241.274 260.282 241.37C260.41 241.466 260.481 241.597 260.481 241.732C260.481 241.868 260.41 241.998 260.282 242.094C260.154 242.19 259.981 242.244 259.801 242.244Z" fill="#CBCBCB"/>
<path d="M159.873 38.4926C159.312 36.5752 157.488 34.9866 155.387 33.8232C151.923 31.9053 147.675 30.9625 143.384 31.1589C139.092 31.3554 135.027 32.6787 131.898 34.8983C130.149 36.0608 128.889 37.5817 128.27 39.275C127.975 40.1213 127.959 41.009 128.224 41.8609C128.489 42.7129 129.027 43.5031 129.79 44.163L130.078 44.2987C129.817 43.4653 130.677 42.6325 131.704 42.2648C132.773 41.9696 133.889 41.7813 135.022 41.7048C136.738 41.4608 138.363 40.9425 139.79 40.1848C141.216 39.4272 142.41 38.448 143.29 37.3133C143.942 38.7098 144.985 39.9851 146.346 41.0532C147.708 42.1214 149.358 42.9577 151.184 43.5059C153.089 44.0665 158.32 44.8374 160.133 44.1257C162.446 43.2178 160.435 40.41 159.873 38.4926Z" fill="#2F2E41"/>
</g>
<defs>
<clipPath id="clip0_176_39">
<rect width="591" height="243" fill="white"/>
</clipPath>
</defs>
</svg>
